<?xml version="1.0" encoding="UTF-8" standalone="no"?>
<!DOCTYPE svg PUBLIC "-//W3C//DTD SVG 1.1//EN" "http://www.w3.org/Graphics/SVG/1.1/DTD/svg11.dtd">
<svg width="100%" height="100%" viewBox="0 0 1181 1181" version="1.1" xmlns="http://www.w3.org/2000/svg" xmlns:xlink="http://www.w3.org/1999/xlink" xml:space="preserve" xmlns:serif="http://www.serif.com/" style="fill-rule:evenodd;clip-rule:evenodd;stroke-linejoin:round;stroke-miterlimit:2;">
    <g transform="matrix(1,0,0,1,-528.603,-949.463)">
        <g transform="matrix(1,0,0,1,-335.305,-203.633)">
            <circle cx="1454.22" cy="1743.41" r="590.314"/>
            <clipPath id="_clip1">
                <circle cx="1454.22" cy="1743.41" r="590.314"/>
            </clipPath>
            <g clip-path="url(#_clip1)">
                <g transform="matrix(1.01807,0,0,1.01807,185.932,42.9492)">
                    <path d="M1263.69,2099.63C1296.81,2077.52 1454.08,1881.8 1451.25,1650C1448.62,1434.31 1356.55,1295.42 1203.33,1297.71C1043.88,1300.09 971.232,1432.07 977.672,1491.74C984.981,1559.48 1044.04,1575.3 1044.04,1575.3L1089.52,1429.2L1254.07,1396.02L1201.86,1575.45L1286.92,1575.91L1269.5,1650L1180.78,1650C1175.68,1666.37 1115.19,1904.81 1126.89,1973.65C1137.21,2034.29 1251.28,2013.97 1251.28,2013.97C1256.78,2019.2 1171.95,2106.66 1072.51,2108.99C1021.27,2110.2 953.183,2073.97 954.968,1950.8C956.752,1827.63 1006.86,1693.43 1006.86,1693.43L1113.52,1650C1126.27,1636.41 914.617,1694.32 905.356,1492.81C902.103,1422.03 939.654,1364.85 971.382,1327.62C1042.92,1243.68 1152.75,1237.04 1199.71,1233.06C1239.88,1229.65 1406.15,1222.69 1521.39,1329.2C1582.83,1385.98 1638.67,1470.65 1633.18,1612.5C1618.74,1985.63 1311.43,2087.98 1263.69,2099.63Z" style="fill:white;"/>
                </g>
            </g>
        </g>
    </g>
</svg>
